<svg xmlns="http://www.w3.org/2000/svg" viewBox="-6 0 384 96" width="384" height="96" role="img" aria-label="mermaider">
  <defs>
    <linearGradient gradientUnits="userSpaceOnUse" id="fg-Llighta" x1="0" y1="0" x2="120" y2="96">
      <stop offset="0.46" stop-color="#4FB8E8"/><stop offset="0.54" stop-color="#B94FE0"/>
    </linearGradient>
    <radialGradient id="fi-Llighta" cx="0.3" cy="0.16" r="1.1">
      <stop offset="0" stop-color="#2B3B4A"/><stop offset="0.5" stop-color="#1B2732"/><stop offset="1" stop-color="#121B24"/>
    </radialGradient>
    <clipPath id="cl-Llighta"><path d="M178 84 C158 52 122 38 94 44 C78 48 62 60 56 76 L6 30 L18 96 L6 162 L56 116 C62 132 78 144 94 148 C122 155 158 140 178 108 L156 96 Z"/></clipPath>
  </defs>
  <g transform="translate(0 6) scale(0.44)">
    <g>
      <animateTransform attributeName="transform" type="translate" values="0 0; 14 0; 0 0" dur="3.2s" calcMode="spline" keySplines="0.4 0 0.6 1; 0.4 0 0.6 1" repeatCount="indefinite"/>
      <g clip-path="url(#cl-Llighta)"><path d="M178 84 C158 52 122 38 94 44 C78 48 62 60 56 76 L6 30 L18 96 L6 162 L56 116 C62 132 78 144 94 148 C122 155 158 140 178 108 L156 96 Z" fill="url(#fi-Llighta)" stroke="#FFFFFF" stroke-opacity="0.2" stroke-width="21.7" stroke-linejoin="round" stroke-linecap="round"/></g>
      <path d="M178 84 C158 52 122 38 94 44 C78 48 62 60 56 76 L6 30 L18 96 L6 162 L56 116 C62 132 78 144 94 148 C122 155 158 140 178 108 L156 96 Z" fill="none" stroke="url(#fg-Llighta)" stroke-width="14" stroke-linejoin="round" stroke-linecap="round"/>
      <path d="M42 96 H94" fill="none" stroke="#7FE0FF" stroke-width="6" stroke-linecap="round"/>
      <circle cx="42" cy="96" r="10" fill="#7FE0FF"/>
      <circle cx="94" cy="96" r="12" fill="#B6D9FF"/>
      <circle cx="136" cy="80" r="10" fill="#E19BFF">
        <animate attributeName="opacity" values="1; 1; 0.1; 1" keyTimes="0; 0.7; 0.78; 0.88" dur="3.2s" repeatCount="indefinite"/>
      </circle>
    </g>
  </g>
  <text x="96" y="59.9" font-family="JetBrains Mono, ui-monospace, SFMono-Regular, Menlo, monospace" font-size="32" font-weight="700" letter-spacing="-1" fill="#16191B">mermaider</text>
</svg>
